<svg width="357" height="230" viewBox="0 0 357 230" fill="none" xmlns="http://www.w3.org/2000/svg">
<rect width="357" height="230" fill="#F5F5F5"/>
<rect width="357" height="230" fill="#0E1831"/>
<path d="M119.7 118C119.388 118 119.232 117.856 119.232 117.568V94.852C119.232 94.564 119.388 94.42 119.7 94.42H127.188C130.788 94.42 133.464 95.284 135.216 97.012C136.968 98.716 137.844 101.284 137.844 104.716V107.236C137.844 110.812 136.968 113.5 135.216 115.3C133.488 117.1 130.824 118 127.224 118H119.7ZM124.236 113.716H126.936C128.976 113.716 130.476 113.164 131.436 112.06C132.396 110.956 132.876 109.324 132.876 107.164V104.824C132.876 102.808 132.396 101.284 131.436 100.252C130.476 99.22 128.964 98.704 126.9 98.704H124.236V113.716ZM150.769 118.396C147.649 118.396 145.285 117.64 143.677 116.128C142.093 114.592 141.301 112.372 141.301 109.468V102.988C141.301 100.06 142.093 97.84 143.677 96.328C145.285 94.792 147.649 94.024 150.769 94.024C153.865 94.024 156.205 94.792 157.789 96.328C159.397 97.84 160.201 100.06 160.201 102.988V109.468C160.201 112.372 159.397 114.592 157.789 116.128C156.205 117.64 153.865 118.396 150.769 118.396ZM150.769 114.004C152.257 114.004 153.373 113.596 154.117 112.78C154.861 111.964 155.233 110.752 155.233 109.144V103.276C155.233 101.644 154.861 100.432 154.117 99.64C153.373 98.824 152.257 98.416 150.769 98.416C149.281 98.416 148.165 98.824 147.421 99.64C146.677 100.432 146.305 101.644 146.305 103.276V109.144C146.305 110.752 146.677 111.964 147.421 112.78C148.165 113.596 149.281 114.004 150.769 114.004ZM164.303 118C163.991 118 163.835 117.856 163.835 117.568L164.303 94.852C164.303 94.564 164.447 94.42 164.735 94.42H169.703C169.943 94.42 170.111 94.528 170.207 94.744L175.751 107.2L181.259 94.744C181.355 94.528 181.523 94.42 181.763 94.42H186.767C187.031 94.42 187.163 94.564 187.163 94.852L187.667 117.568C187.667 117.856 187.523 118 187.235 118H183.203C182.891 118 182.735 117.856 182.735 117.568L182.555 107.704C182.531 106.672 182.531 105.64 182.555 104.608C182.603 103.576 182.651 102.592 182.699 101.656H182.591C182.231 102.544 181.835 103.468 181.403 104.428C180.995 105.364 180.575 106.276 180.143 107.164L176.327 115.228C176.231 115.42 176.063 115.516 175.823 115.516H175.643C175.427 115.516 175.271 115.42 175.175 115.228L171.323 107.128C170.891 106.264 170.471 105.364 170.063 104.428C169.679 103.468 169.295 102.544 168.911 101.656H168.803C168.851 102.592 168.899 103.576 168.947 104.608C168.995 105.64 169.007 106.66 168.983 107.668L168.767 117.568C168.767 117.856 168.611 118 168.299 118H164.303ZM189.746 118C189.434 118 189.314 117.832 189.386 117.496L196.622 94.78C196.718 94.54 196.898 94.42 197.162 94.42H202.526C202.766 94.42 202.934 94.54 203.03 94.78L210.302 117.496C210.398 117.832 210.29 118 209.978 118H205.442C205.202 118 205.046 117.88 204.974 117.64L201.014 103.6C200.798 102.784 200.594 101.98 200.402 101.188C200.21 100.372 200.018 99.556 199.826 98.74H199.754C199.586 99.556 199.394 100.372 199.178 101.188C198.986 101.98 198.782 102.784 198.566 103.6L194.714 117.64C194.642 117.88 194.462 118 194.174 118H189.746ZM195.146 113.356L195.974 109.36H203.57L204.434 113.356H195.146ZM213.005 118C212.693 118 212.537 117.856 212.537 117.568V94.852C212.537 94.564 212.693 94.42 213.005 94.42H217.109C217.397 94.42 217.541 94.564 217.541 94.852V117.568C217.541 117.856 217.397 118 217.109 118H213.005ZM222.462 118C222.15 118 221.994 117.856 221.994 117.568V94.852C221.994 94.564 222.15 94.42 222.462 94.42H227.898C228.138 94.42 228.306 94.528 228.402 94.744L233.298 105.04C233.658 105.76 234.006 106.504 234.342 107.272C234.678 108.04 234.99 108.784 235.278 109.504C235.59 110.224 235.854 110.896 236.07 111.52H236.142C236.094 110.848 236.046 110.104 235.998 109.288C235.974 108.448 235.938 107.62 235.89 106.804C235.866 105.988 235.854 105.244 235.854 104.572V94.852C235.854 94.564 235.998 94.42 236.286 94.42H240.246C240.534 94.42 240.678 94.564 240.678 94.852V117.568C240.678 117.856 240.534 118 240.246 118H234.81C234.594 118 234.438 117.892 234.342 117.676L229.554 107.74C229.218 107.02 228.882 106.276 228.546 105.508C228.234 104.74 227.922 103.984 227.61 103.24C227.298 102.472 227.01 101.764 226.746 101.116H226.674C226.698 101.812 226.722 102.58 226.746 103.42C226.77 104.26 226.782 105.1 226.782 105.94C226.806 106.78 226.818 107.56 226.818 108.28V117.568C226.818 117.856 226.674 118 226.386 118H222.462Z" fill="white"/>
<path d="M119.7 146C119.388 146 119.232 145.856 119.232 145.568V122.852C119.232 122.564 119.388 122.42 119.7 122.42H133.524C133.788 122.42 133.92 122.564 133.92 122.852V126.344C133.92 126.632 133.788 126.776 133.524 126.776H124.236V132.032H132.696C132.984 132.032 133.128 132.176 133.128 132.464V135.704C133.128 136.016 132.984 136.172 132.696 136.172H124.236V141.644H133.524C133.788 141.644 133.92 141.788 133.92 142.076V145.568C133.92 145.856 133.788 146 133.524 146H119.7ZM136.452 146C136.26 146 136.14 145.952 136.092 145.856C136.044 145.736 136.068 145.604 136.164 145.46L143.328 133.904L136.596 122.96C136.5 122.792 136.476 122.66 136.524 122.564C136.572 122.468 136.68 122.42 136.848 122.42H141.708C141.948 122.42 142.104 122.516 142.176 122.708L144.804 127.244C145.068 127.7 145.32 128.192 145.56 128.72C145.824 129.224 146.052 129.716 146.244 130.196H146.352C146.568 129.716 146.808 129.2 147.072 128.648C147.36 128.072 147.624 127.568 147.864 127.136L150.384 122.708C150.48 122.516 150.636 122.42 150.852 122.42H155.64C155.808 122.42 155.916 122.468 155.964 122.564C156.012 122.66 155.988 122.792 155.892 122.96L149.16 133.94L156.288 145.46C156.36 145.604 156.372 145.736 156.324 145.856C156.276 145.952 156.168 146 156 146H151.104C150.888 146 150.72 145.904 150.6 145.712L147.828 140.888C147.588 140.432 147.324 139.916 147.036 139.34C146.748 138.764 146.484 138.212 146.244 137.684H146.136C145.896 138.212 145.632 138.764 145.344 139.34C145.08 139.892 144.828 140.384 144.588 140.816L141.744 145.712C141.624 145.904 141.444 146 141.204 146H136.452ZM159.18 146C158.868 146 158.712 145.856 158.712 145.568V122.852C158.712 122.564 158.868 122.42 159.18 122.42H165.984C169.104 122.42 171.384 123.092 172.824 124.436C174.264 125.756 174.984 127.724 174.984 130.34C174.984 132.812 174.24 134.732 172.752 136.1C171.264 137.444 169.02 138.116 166.02 138.116H163.716V145.568C163.716 145.856 163.572 146 163.284 146H159.18ZM163.716 133.832H165.948C167.292 133.832 168.3 133.556 168.972 133.004C169.644 132.452 169.98 131.564 169.98 130.34C169.98 129.044 169.644 128.12 168.972 127.568C168.324 126.992 167.316 126.704 165.948 126.704H163.716V133.832ZM174.804 146C174.492 146 174.372 145.832 174.444 145.496L181.68 122.78C181.776 122.54 181.956 122.42 182.22 122.42H187.584C187.824 122.42 187.992 122.54 188.088 122.78L195.36 145.496C195.456 145.832 195.348 146 195.036 146H190.5C190.26 146 190.104 145.88 190.032 145.64L186.072 131.6C185.856 130.784 185.652 129.98 185.46 129.188C185.268 128.372 185.076 127.556 184.884 126.74H184.812C184.644 127.556 184.452 128.372 184.236 129.188C184.044 129.98 183.84 130.784 183.624 131.6L179.772 145.64C179.7 145.88 179.52 146 179.232 146H174.804ZM180.204 141.356L181.032 137.36H188.628L189.492 141.356H180.204ZM198.063 146C197.751 146 197.595 145.856 197.595 145.568V122.852C197.595 122.564 197.751 122.42 198.063 122.42H203.499C203.739 122.42 203.907 122.528 204.003 122.744L208.899 133.04C209.259 133.76 209.607 134.504 209.943 135.272C210.279 136.04 210.591 136.784 210.879 137.504C211.191 138.224 211.455 138.896 211.671 139.52H211.743C211.695 138.848 211.647 138.104 211.599 137.288C211.575 136.448 211.539 135.62 211.491 134.804C211.467 133.988 211.455 133.244 211.455 132.572V122.852C211.455 122.564 211.599 122.42 211.887 122.42H215.847C216.135 122.42 216.279 122.564 216.279 122.852V145.568C216.279 145.856 216.135 146 215.847 146H210.411C210.195 146 210.039 145.892 209.943 145.676L205.155 135.74C204.819 135.02 204.483 134.276 204.147 133.508C203.835 132.74 203.523 131.984 203.211 131.24C202.899 130.472 202.611 129.764 202.347 129.116H202.275C202.299 129.812 202.323 130.58 202.347 131.42C202.371 132.26 202.383 133.1 202.383 133.94C202.407 134.78 202.419 135.56 202.419 136.28V145.568C202.419 145.856 202.275 146 201.987 146H198.063ZM228.108 146.396C225.06 146.396 222.864 145.784 221.52 144.56C220.176 143.336 219.6 141.548 219.792 139.196C219.816 138.836 219.972 138.656 220.26 138.656H224.292C224.604 138.656 224.736 138.824 224.688 139.16C224.664 140.12 224.94 140.864 225.516 141.392C226.116 141.896 227.028 142.148 228.252 142.148C229.476 142.148 230.376 141.968 230.952 141.608C231.528 141.224 231.816 140.624 231.816 139.808C231.816 139.4 231.732 139.04 231.564 138.728C231.396 138.416 231.144 138.14 230.808 137.9C230.472 137.636 229.992 137.372 229.368 137.108L224.58 134.876C223.452 134.348 222.552 133.784 221.88 133.184C221.208 132.56 220.728 131.852 220.44 131.06C220.176 130.268 220.044 129.356 220.044 128.324C220.068 126.308 220.74 124.76 222.06 123.68C223.38 122.576 225.36 122.024 228 122.024C230.88 122.024 233.04 122.612 234.48 123.788C235.92 124.964 236.544 126.704 236.352 129.008C236.304 129.392 236.148 129.584 235.884 129.584H231.852C231.708 129.584 231.588 129.548 231.492 129.476C231.42 129.38 231.396 129.224 231.42 129.008C231.492 128.168 231.228 127.496 230.628 126.992C230.052 126.464 229.2 126.2 228.072 126.2C227.088 126.2 226.332 126.38 225.804 126.74C225.3 127.1 225.036 127.652 225.012 128.396C225.012 128.78 225.084 129.128 225.228 129.44C225.396 129.752 225.66 130.04 226.02 130.304C226.38 130.544 226.86 130.796 227.46 131.06L232.176 133.256C233.352 133.808 234.276 134.384 234.948 134.984C235.62 135.584 236.1 136.28 236.388 137.072C236.676 137.864 236.808 138.8 236.784 139.88C236.784 141.992 236.088 143.612 234.696 144.74C233.328 145.844 231.132 146.396 228.108 146.396ZM240.884 146C240.572 146 240.416 145.856 240.416 145.568V122.852C240.416 122.564 240.572 122.42 240.884 122.42H244.988C245.276 122.42 245.42 122.564 245.42 122.852V145.568C245.42 145.856 245.276 146 244.988 146H240.884ZM258.945 146.396C255.825 146.396 253.461 145.64 251.853 144.128C250.269 142.592 249.477 140.372 249.477 137.468V130.988C249.477 128.06 250.269 125.84 251.853 124.328C253.461 122.792 255.825 122.024 258.945 122.024C262.041 122.024 264.381 122.792 265.965 124.328C267.573 125.84 268.377 128.06 268.377 130.988V137.468C268.377 140.372 267.573 142.592 265.965 144.128C264.381 145.64 262.041 146.396 258.945 146.396ZM258.945 142.004C260.433 142.004 261.549 141.596 262.293 140.78C263.037 139.964 263.409 138.752 263.409 137.144V131.276C263.409 129.644 263.037 128.432 262.293 127.64C261.549 126.824 260.433 126.416 258.945 126.416C257.457 126.416 256.341 126.824 255.597 127.64C254.853 128.432 254.481 129.644 254.481 131.276V137.144C254.481 138.752 254.853 139.964 255.597 140.78C256.341 141.596 257.457 142.004 258.945 142.004ZM272.911 146C272.599 146 272.443 145.856 272.443 145.568V122.852C272.443 122.564 272.599 122.42 272.911 122.42H278.347C278.587 122.42 278.755 122.528 278.851 122.744L283.747 133.04C284.107 133.76 284.455 134.504 284.791 135.272C285.127 136.04 285.439 136.784 285.727 137.504C286.039 138.224 286.303 138.896 286.519 139.52H286.591C286.543 138.848 286.495 138.104 286.447 137.288C286.423 136.448 286.387 135.62 286.339 134.804C286.315 133.988 286.303 133.244 286.303 132.572V122.852C286.303 122.564 286.447 122.42 286.735 122.42H290.695C290.983 122.42 291.127 122.564 291.127 122.852V145.568C291.127 145.856 290.983 146 290.695 146H285.259C285.043 146 284.887 145.892 284.791 145.676L280.003 135.74C279.667 135.02 279.331 134.276 278.995 133.508C278.683 132.74 278.371 131.984 278.059 131.24C277.747 130.472 277.459 129.764 277.195 129.116H277.123C277.147 129.812 277.171 130.58 277.195 131.42C277.219 132.26 277.231 133.1 277.231 133.94C277.255 134.78 277.267 135.56 277.267 136.28V145.568C277.267 145.856 277.123 146 276.835 146H272.911Z" fill="white"/>
<rect x="243" y="93" width="42" height="27" rx="2" fill="#0E1831"/>
<path d="M247.671 105C247.583 105 247.539 104.956 247.539 104.868V99.126H245.779C245.691 99.126 245.647 99.082 245.647 98.994V97.927C245.647 97.839 245.691 97.795 245.779 97.795H250.817C250.905 97.795 250.949 97.839 250.949 97.927V98.994C250.949 99.082 250.905 99.126 250.817 99.126H249.068V104.868C249.068 104.956 249.02 105 248.925 105H247.671ZM254.23 105C254.135 105 254.087 104.956 254.087 104.868V97.927C254.087 97.839 254.135 97.795 254.23 97.795H255.484C255.572 97.795 255.616 97.839 255.616 97.927V100.688H258.256V97.927C258.256 97.839 258.3 97.795 258.388 97.795H259.642C259.73 97.795 259.774 97.839 259.774 97.927V104.868C259.774 104.956 259.73 105 259.642 105H258.388C258.3 105 258.256 104.956 258.256 104.868V102.019H255.616V104.868C255.616 104.956 255.572 105 255.484 105H254.23ZM263.477 105C263.382 105 263.334 104.956 263.334 104.868V97.927C263.334 97.839 263.382 97.795 263.477 97.795H264.731C264.819 97.795 264.863 97.839 264.863 97.927V104.868C264.863 104.956 264.819 105 264.731 105H263.477ZM268.567 105C268.472 105 268.424 104.956 268.424 104.868V97.927C268.424 97.839 268.472 97.795 268.567 97.795H270.228C270.301 97.795 270.353 97.828 270.382 97.894L271.878 101.04C271.988 101.26 272.094 101.487 272.197 101.722C272.3 101.957 272.395 102.184 272.483 102.404C272.578 102.624 272.659 102.829 272.725 103.02H272.747C272.732 102.815 272.718 102.587 272.703 102.338C272.696 102.081 272.685 101.828 272.67 101.579C272.663 101.33 272.659 101.102 272.659 100.897V97.927C272.659 97.839 272.703 97.795 272.791 97.795H274.001C274.089 97.795 274.133 97.839 274.133 97.927V104.868C274.133 104.956 274.089 105 274.001 105H272.34C272.274 105 272.226 104.967 272.197 104.901L270.734 101.865C270.631 101.645 270.529 101.418 270.426 101.183C270.331 100.948 270.235 100.717 270.14 100.49C270.045 100.255 269.957 100.039 269.876 99.841H269.854C269.861 100.054 269.869 100.288 269.876 100.545C269.883 100.802 269.887 101.058 269.887 101.315C269.894 101.572 269.898 101.81 269.898 102.03V104.868C269.898 104.956 269.854 105 269.766 105H268.567ZM277.835 105C277.74 105 277.692 104.956 277.692 104.868V97.927C277.692 97.839 277.74 97.795 277.835 97.795H279.089C279.177 97.795 279.221 97.839 279.221 97.927V99.632C279.221 99.8447 279.218 100.076 279.21 100.325C279.21 100.574 279.203 100.809 279.188 101.029H279.21C279.335 100.816 279.467 100.6 279.606 100.38C279.746 100.153 279.896 99.9253 280.057 99.698L281.487 97.872C281.531 97.8207 281.586 97.795 281.652 97.795H283.17C283.222 97.795 283.255 97.8097 283.269 97.839C283.291 97.8683 283.284 97.9087 283.247 97.96L281.091 100.743L283.489 104.835C283.519 104.879 283.522 104.919 283.5 104.956C283.486 104.985 283.453 105 283.401 105H281.872C281.799 105 281.744 104.971 281.707 104.912L280.035 101.953L279.221 102.921V104.868C279.221 104.956 279.177 105 279.089 105H277.835Z" fill="white"/>
<path d="M248.843 119.165C247.543 119.165 246.558 118.85 245.888 118.22C245.228 117.58 244.898 116.655 244.898 115.445V112.745C244.898 111.525 245.228 110.6 245.888 109.97C246.558 109.33 247.543 109.01 248.843 109.01C250.133 109.01 251.108 109.33 251.768 109.97C252.438 110.6 252.773 111.525 252.773 112.745V115.445C252.773 116.655 252.438 117.58 251.768 118.22C251.108 118.85 250.133 119.165 248.843 119.165ZM248.843 117.335C249.463 117.335 249.928 117.165 250.238 116.825C250.548 116.485 250.703 115.98 250.703 115.31V112.865C250.703 112.185 250.548 111.68 250.238 111.35C249.928 111.01 249.463 110.84 248.843 110.84C248.223 110.84 247.758 111.01 247.448 111.35C247.138 111.68 246.983 112.185 246.983 112.865V115.31C246.983 115.98 247.138 116.485 247.448 116.825C247.758 117.165 248.223 117.335 248.843 117.335ZM261.248 119.165C259.978 119.165 259.018 118.86 258.368 118.25C257.728 117.63 257.408 116.685 257.408 115.415V109.355C257.408 109.235 257.468 109.175 257.588 109.175H259.313C259.433 109.175 259.493 109.235 259.493 109.355V115.34C259.493 116 259.633 116.5 259.913 116.84C260.193 117.18 260.638 117.35 261.248 117.35C261.858 117.35 262.303 117.18 262.583 116.84C262.863 116.5 263.003 116 263.003 115.34V109.355C263.003 109.235 263.058 109.175 263.168 109.175H264.893C265.013 109.175 265.073 109.235 265.073 109.355V115.415C265.073 116.675 264.748 117.615 264.098 118.235C263.448 118.855 262.498 119.165 261.248 119.165ZM272.047 119C271.927 119 271.867 118.94 271.867 118.82V110.99H269.467C269.347 110.99 269.287 110.93 269.287 110.81V109.355C269.287 109.235 269.347 109.175 269.467 109.175H276.337C276.457 109.175 276.517 109.235 276.517 109.355V110.81C276.517 110.93 276.457 110.99 276.337 110.99H273.952V118.82C273.952 118.94 273.887 119 273.757 119H272.047Z" fill="white"/>
<path d="M285 101.802C285 101.689 285.052 101.633 285.156 101.633H293.359C293.463 101.633 293.515 101.689 293.515 101.802V104.441C293.515 106.469 292.817 107.483 291.422 107.483C290.919 107.483 290.516 107.37 290.213 107.145C289.91 106.928 289.676 106.594 289.511 106.144H289.472C289.359 106.681 289.138 107.097 288.809 107.392C288.488 107.686 288.046 107.834 287.483 107.834C286.616 107.834 285.984 107.565 285.585 107.028C285.195 106.49 285 105.628 285 104.441V101.802ZM286.469 103.44V104.493C286.469 105.039 286.556 105.433 286.729 105.676C286.911 105.918 287.197 106.04 287.587 106.04C287.96 106.04 288.233 105.914 288.406 105.663C288.579 105.42 288.666 105.039 288.666 104.519V103.44H286.469ZM289.992 103.44V104.428C289.992 104.852 290.083 105.169 290.265 105.377C290.447 105.585 290.711 105.689 291.058 105.689C291.396 105.689 291.643 105.58 291.799 105.364C291.964 105.147 292.046 104.805 292.046 104.337V103.44H289.992ZM284.857 111.216C284.857 110.09 285.13 109.236 285.676 108.655C286.231 108.083 287.032 107.797 288.081 107.797H290.421C291.478 107.797 292.28 108.083 292.826 108.655C293.381 109.236 293.658 110.09 293.658 111.216C293.658 112.334 293.381 113.179 292.826 113.751C292.28 114.332 291.478 114.622 290.421 114.622H288.081C287.032 114.622 286.231 114.332 285.676 113.751C285.13 113.179 284.857 112.334 284.857 111.216ZM286.443 111.216C286.443 111.754 286.59 112.157 286.885 112.425C287.18 112.694 287.617 112.828 288.198 112.828H290.317C290.906 112.828 291.344 112.694 291.63 112.425C291.925 112.157 292.072 111.754 292.072 111.216C292.072 110.679 291.925 110.276 291.63 110.007C291.344 109.739 290.906 109.604 290.317 109.604H288.198C287.617 109.604 287.18 109.739 286.885 110.007C286.59 110.276 286.443 110.679 286.443 111.216ZM285 113.941C285 113.872 285.017 113.828 285.052 113.811C285.095 113.794 285.143 113.802 285.195 113.837L289.368 116.424L293.32 113.993C293.381 113.958 293.428 113.95 293.463 113.967C293.498 113.984 293.515 114.023 293.515 114.084V115.839C293.515 115.926 293.48 115.982 293.411 116.008L291.773 116.957C291.608 117.052 291.431 117.143 291.24 117.23C291.058 117.325 290.88 117.408 290.707 117.477V117.516C290.88 117.594 291.067 117.681 291.266 117.776C291.474 117.88 291.656 117.975 291.812 118.062L293.411 118.972C293.48 119.007 293.515 119.063 293.515 119.141V120.87C293.515 120.931 293.498 120.97 293.463 120.987C293.428 121.004 293.381 120.996 293.32 120.961L289.355 118.53L285.195 121.104C285.143 121.13 285.095 121.134 285.052 121.117C285.017 121.1 285 121.061 285 121V119.232C285 119.154 285.035 119.093 285.104 119.05L286.846 118.049C287.011 117.962 287.197 117.867 287.405 117.763C287.613 117.659 287.812 117.564 288.003 117.477V117.438C287.812 117.351 287.613 117.256 287.405 117.152C287.206 117.057 287.028 116.966 286.872 116.879L285.104 115.852C285.035 115.809 285 115.744 285 115.657V113.941Z" fill="white"/>
<path d="M277.912 107.532C277.912 106.854 278.048 106.366 278.32 106.068C278.592 105.769 278.989 105.641 279.512 105.684C279.592 105.689 279.632 105.724 279.632 105.788V106.684C279.632 106.753 279.595 106.782 279.52 106.772C279.307 106.766 279.141 106.828 279.024 106.956C278.912 107.089 278.856 107.292 278.856 107.564C278.856 107.836 278.896 108.036 278.976 108.164C279.061 108.292 279.195 108.356 279.376 108.356C279.467 108.356 279.547 108.337 279.616 108.3C279.685 108.262 279.747 108.206 279.8 108.132C279.859 108.057 279.917 107.95 279.976 107.812L280.472 106.748C280.589 106.497 280.715 106.297 280.848 106.148C280.987 105.998 281.144 105.892 281.32 105.828C281.496 105.769 281.699 105.74 281.928 105.74C282.376 105.745 282.72 105.894 282.96 106.188C283.205 106.481 283.328 106.921 283.328 107.508C283.328 108.148 283.197 108.628 282.936 108.948C282.675 109.268 282.288 109.406 281.776 109.364C281.691 109.353 281.648 109.318 281.648 109.26V108.364C281.648 108.332 281.656 108.305 281.672 108.284C281.693 108.268 281.728 108.262 281.776 108.268C281.963 108.284 282.112 108.225 282.224 108.092C282.341 107.964 282.4 107.774 282.4 107.524C282.4 107.305 282.36 107.137 282.28 107.02C282.2 106.908 282.077 106.849 281.912 106.844C281.827 106.844 281.749 106.86 281.68 106.892C281.611 106.929 281.547 106.988 281.488 107.068C281.435 107.148 281.379 107.254 281.32 107.388L280.832 108.436C280.709 108.697 280.581 108.902 280.448 109.052C280.315 109.201 280.16 109.308 279.984 109.372C279.808 109.436 279.6 109.465 279.36 109.46C278.891 109.46 278.531 109.305 278.28 108.996C278.035 108.692 277.912 108.204 277.912 107.532ZM278 109.891C278 109.821 278.032 109.787 278.096 109.787H283.144C283.208 109.787 283.24 109.821 283.24 109.891V110.803C283.24 110.867 283.208 110.899 283.144 110.899H278.096C278.032 110.899 278 110.867 278 110.803V109.891ZM278 111.512C278 111.443 278.032 111.408 278.096 111.408H283.144C283.208 111.408 283.24 111.443 283.24 111.512V113.176C283.24 113.976 283.048 114.571 282.664 114.96C282.285 115.35 281.715 115.544 280.952 115.544H280.392C279.597 115.544 279 115.35 278.6 114.96C278.2 114.576 278 113.984 278 113.184V111.512ZM278.952 112.52V113.12C278.952 113.574 279.075 113.907 279.32 114.12C279.565 114.334 279.928 114.44 280.408 114.44H280.928C281.376 114.44 281.715 114.334 281.944 114.12C282.173 113.907 282.288 113.571 282.288 113.112V112.52H278.952ZM278 116.025C278 115.955 278.032 115.921 278.096 115.921H283.144C283.208 115.921 283.24 115.955 283.24 116.025V119.097C283.24 119.155 283.208 119.185 283.144 119.185H282.368C282.304 119.185 282.272 119.155 282.272 119.097V117.033H281.104V118.913C281.104 118.977 281.072 119.009 281.008 119.009H280.288C280.219 119.009 280.184 118.977 280.184 118.913V117.033H278.968V119.097C278.968 119.155 278.936 119.185 278.872 119.185H278.096C278.032 119.185 278 119.155 278 119.097V116.025Z" fill="white"/>
<path d="M286.205 100C286.173 100 286.157 99.984 286.157 99.952V97.864H285.517C285.485 97.864 285.469 97.848 285.469 97.816V97.428C285.469 97.396 285.485 97.38 285.517 97.38H287.349C287.381 97.38 287.397 97.396 287.397 97.428V97.816C287.397 97.848 287.381 97.864 287.349 97.864H286.713V99.952C286.713 99.984 286.696 100 286.661 100H286.205ZM288.03 100C287.996 100 287.978 99.984 287.978 99.952V97.428C287.978 97.396 287.996 97.38 288.03 97.38H288.486C288.518 97.38 288.534 97.396 288.534 97.428V98.432H289.494V97.428C289.494 97.396 289.51 97.38 289.542 97.38H289.998C290.03 97.38 290.046 97.396 290.046 97.428V99.952C290.046 99.984 290.03 100 289.998 100H289.542C289.51 100 289.494 99.984 289.494 99.952V98.916H288.534V99.952C288.534 99.984 288.518 100 288.486 100H288.03ZM290.833 100C290.798 100 290.781 99.984 290.781 99.952V97.428C290.781 97.396 290.798 97.38 290.833 97.38H292.369C292.398 97.38 292.413 97.396 292.413 97.428V97.816C292.413 97.848 292.398 97.864 292.369 97.864H291.337V98.448H292.277C292.309 98.448 292.325 98.464 292.325 98.496V98.856C292.325 98.8907 292.309 98.908 292.277 98.908H291.337V99.516H292.369C292.398 99.516 292.413 99.532 292.413 99.564V99.952C292.413 99.984 292.398 100 292.369 100H290.833Z" fill="white"/>
<rect x="59" y="95" width="57" height="51" rx="4" fill="#0E1831"/>
<path d="M76 106H82.1754L96 118.5L89.5 125.24L82.1754 132H76V106Z" fill="#D19B24"/>
<path d="M88 118L85.5 120.5L82.5 123.5V113L88 118Z" fill="#0E1831"/>
<path d="M85 106H103V111H90.5L85 106Z" fill="#AD2547"/>
<path d="M85 132H103V126H90.5L85 132Z" fill="#52ACD4"/>
<rect x="101" y="106" width="2" height="5" fill="#AD2547"/>
<path d="M95 116H103V121H95L97.8571 118.083L95 116Z" fill="#499B67"/>
</svg>
